:SAMPLES-PER-SECOND 30
:FULLY-SPECIFIED
:DEGREES
763
root  -59.5724 34.4222 35.8124 -169.147 55.4256 175.894
RightUpLeg  -11.5971 -23.2935 -5.57337
RightLeg  20.5668 -11.0215 -3.31989
RightFoot  -1.47272 -0.00160208 0.528192
RightToes  -30.5616 -0.147808 -0.255851
Spine  -2.69043 0.541588 -0.271996
Spine1  -5.41512 1.13951 0.127956
HEad  -61.1269 11.1388 1.96384
LeftShoulder1  -1.94126e-019 -3.10601e-018 -2.51263e-017
LeftArm  -13.5888 28.5484 -79.5302
LeftForeArm  28.1307 -30.9969 -5.17808
LeftHand  -0.417794 -1.73702 6.98364
RightShoulder  -4.96962e-017 0 -2.36833e-017
RightArm  -31.1203 -23.576 75.0187
RightForeArm  58.5926 13.8653 1.24561
RightHand  -0.46827 -0.109469 -10.3307
LeftUpLeg  -7.10022 -9.10482 -5.30955
LeftLeg  6.54968 22.0508 1.07659
LeftFoot  -2.64041 -0.0249719 -0.921964
LeftToes  -9.50381 1.87998e-006 4.79886e-008
764
root  -59.4663 34.3701 35.4228 -169.2 55.4111 176.275
RightUpLeg  -14.0505 -21.3668 -5.94864
RightLeg  27.1686 -12.808 -5.50392
RightFoot  -0.668734 -0.00189997 0.407045
RightToes  -32.9738 -0.164926 -0.272094
Spine  -2.54353 0.373026 -0.33581
Spine1  -5.11474 0.794175 0.0240906
HEad  -60.9596 10.4961 2.21503
LeftShoulder1  -1.94126e-019 -3.10601e-018 -2.51263e-017
LeftArm  -12.5283 27.5602 -78.691
LeftForeArm  27.7859 -30.0491 -4.9748
LeftHand  -0.390367 -1.43372 6.80239
RightShoulder  -4.96962e-017 0 -2.36833e-017
RightArm  -30.2659 -23.4947 74.2928
RightForeArm  57.0896 14.8853 1.12155
RightHand  -0.492082 0.154391 -10.3612
LeftUpLeg  -6.47439 -7.1863 -5.9951
LeftLeg  6.75234 22.2374 1.16209
LeftFoot  -3.89364 -0.0545584 -1.44338
LeftToes  -7.50636 1.87998e-006 4.79886e-008
765
root  -59.3138 34.3365 35.0646 -168.857 55.4418 177.146
RightUpLeg  -17.2904 -18.6809 -5.81339
RightLeg  34.9588 -14.1047 -8.42798
RightFoot  1.77447 0.0133348 -0.273427
RightToes  -35.6134 -0.184423 -0.289026
Spine  -2.41664 0.22301 -0.30043
Spine1  -4.85485 0.489238 0.115399
HEad  -60.826 10.0391 2.27713
LeftShoulder1  -1.94126e-019 -3.10601e-018 -2.51263e-017
LeftArm  -11.6283 26.6669 -78.0999
LeftForeArm  27.8937 -28.967 -4.71996
LeftHand  -0.372933 -1.27358 6.64835
RightShoulder  -4.96962e-017 0 -2.36833e-017
RightArm  -29.688 -23.7166 73.681
RightForeArm  55.5996 16.3875 1.12689
RightHand  -0.489044 0.0853424 -10.4211
LeftUpLeg  -5.86324 -5.0224 -6.19326
LeftLeg  7.0765 21.5639 1.24801
LeftFoot  -4.68571 -0.0762557 -1.7021
LeftToes  -7.54018 1.87998e-006 4.79886e-008
766
root  -59.1264 34.3021 34.771 -168.062 55.3852 178.226
RightUpLeg  -21.1898 -16.4556 -4.96493
RightLeg  42.8864 -15.3677 -12.2138
RightFoot  3.71379 0.0547056 -1.05785
RightToes  -26.6448 -0.121512 -0.227983
Spine  -2.30332 0.0867496 -0.25327
Spine1  -4.62654 0.215845 0.216308
HEad  -61.2332 9.55092 2.30121
LeftShoulder1  -1.94126e-019 -3.10601e-018 -2.51263e-017
LeftArm  -10.4114 25.7626 -77.5047
LeftForeArm  27.3646 -28.5693 -4.66056
LeftHand  -0.351431 -0.771135 6.74034
RightShoulder  -4.96962e-017 0 -2.36833e-017
RightArm  -29.8533 -24.0893 73.3424
RightForeArm  54.1662 17.8929 1.2901
RightHand  -0.504469 0.186637 -10.5618
LeftUpLeg  -5.62487 -2.91931 -6.01562
LeftLeg  7.53199 20.9627 1.37825
LeftFoot  -5.82645 -0.114242 -2.08305
LeftToes  -5.76587 1.87998e-006 4.79886e-008
767
root  -58.865 34.2669 34.4809 -167.124 55.2988 179.365
RightUpLeg  -24.8282 -14.8108 -3.83932
RightLeg  48.5302 -14.1944 -13.7352
RightFoot  4.23834 0.0699473 -1.25694
RightToes  -18.0699 -0.0709626 -0.161125
Spine  -2.17493 -0.0889836 -0.248437
Spine1  -4.36936 -0.1363 0.224875
HEad  -62.1206 9.26367 2.26638
LeftShoulder1  -1.94126e-019 -3.10601e-018 -2.51263e-017
LeftArm  -9.02718 24.8198 -76.8402
LeftForeArm  26.4032 -28.8145 -4.77232
LeftHand  -0.32311 -0.262464 6.71528
RightShoulder  -4.96962e-017 0 -2.36833e-017
RightArm  -30.7563 -24.11 73.3455
RightForeArm  53.0096 17.6909 1.28966
RightHand  -0.523282 0.134639 -11.051
LeftUpLeg  -5.26243 -0.893174 -5.71413
LeftLeg  7.70174 20.2974 1.39547
LeftFoot  -6.42533 -0.134181 -2.22861
LeftToes  -6.02898 1.87998e-006 4.79886e-008
768
root  -58.5276 34.2415 34.2279 -165.545 55.1289 -179.068
RightUpLeg  -28.5102 -13.3366 -1.9901
RightLeg  51.7859 -10.3738 -11.3924
RightFoot  3.68551 0.044732 -0.783896
RightToes  -17.8317 -0.0697039 -0.159164
Spine  -2.11639 -0.332891 -0.133427
Spine1  -4.25253 -0.618071 0.445126
HEad  -63.0698 9.28204 1.98935
LeftShoulder1  -1.94126e-019 -3.10601e-018 -2.51263e-017
LeftArm  -8.20848 23.7089 -76.528
LeftForeArm  26.5495 -29.1272 -4.84837
LeftHand  -0.311956 -0.237146 6.51175
RightShoulder  -4.96962e-017 0 -2.36833e-017
RightArm  -30.7398 -24.2185 73.2576
RightForeArm  51.6235 16.8277 1.18348
RightHand  -0.460214 -0.54113 -11.0142
LeftUpLeg  -5.42845 2.37912 -4.98565
LeftLeg  8.18063 19.0247 1.46811
LeftFoot  -7.36349 -0.16451 -2.39461
LeftToes  -4.86165 1.87998e-006 4.79886e-008
769
root  -58.1361 34.2132 33.9437 -164.215 54.7145 -177.753
RightUpLeg  -31.811 -12.4889 0.0626337
RightLeg  53.4527 -9.27645 -10.8386
RightFoot  3.2337 0.0338504 -0.601348
RightToes  -18.31 -0.0687857 -0.159286
Spine  -2.10623 -0.604112 -0.0176522
Spine1  -4.22501 -1.16483 0.690308
HEad  -63.93 9.28531 1.49286
LeftShoulder1  -1.94126e-019 -3.10601e-018 -2.51263e-017
LeftArm  -7.74767 22.3785 -76.7187
LeftForeArm  27.4648 -29.5187 -4.9066
LeftHand  -0.300613 -0.199083 6.31551
RightShoulder  -4.96962e-017 0 -2.36833e-017
RightArm  -28.8889 -26.3898 72.6438
RightForeArm  47.0239 19.5023 1.83727
RightHand  -0.367808 -0.0997088 -8.10503
LeftUpLeg  -5.49141 4.24828 -4.2961
LeftLeg  8.89729 18.2544 1.63656
LeftFoot  -7.81943 -0.177579 -2.43632
LeftToes  -6.14082 1.87998e-006 4.79886e-008
770
root  -57.6953 34.1676 33.6229 -163.326 54.171 -176.799
RightUpLeg  -34.62 -12.2765 2.02352
RightLeg  53.4827 -9.83454 -11.4758
RightFoot  1.98463 0.0156525 -0.314615
RightToes  -17.9118 -0.0683125 -0.159824
Spine  -1.97734 -0.862652 0.0656086
Spine1  -3.96243 -1.69245 0.85683
HEad  -65.3063 9.32998 1.04127
LeftShoulder1  -1.94126e-019 -3.10601e-018 -2.51263e-017
LeftArm  -7.04152 21.1105 -77.064
LeftForeArm  27.9836 -30.5438 -5.10086
LeftHand  -0.310359 -0.374312 6.3369
RightShoulder  -4.96962e-017 0 -2.36833e-017
RightArm  -24.8957 -29.4119 71.5009
RightForeArm  41.1169 23.0183 2.7747
RightHand  -0.253902 0.222619 -5.3056
LeftUpLeg  -5.22304 3.2468 -3.57462
LeftLeg  9.98175 18.7808 2.03427
LeftFoot  -8.62567 -0.223124 -2.79637
LeftToes  -5.64983 1.87998e-006 4.79886e-008
